<mxfile host="app.diagrams.net" modified="2022-10-22T23:57:21.585Z" agent="5.0 (Windows NT 10.0; Win64; x64) AppleWebKit/537.36 (KHTML, like Gecko) Chrome/106.0.0.0 Safari/537.36    " etag="Fo_T-i89CbGrpRruGFbM" version="20.5.1" type="github">
  <diagram id="prtHgNgQTEPvFCAcTncT" name="Page-1">
    <mxGraphModel dx="971" dy="860" grid="1" gridSize="10" guides="1" tooltips="1" connect="1" arrows="1" fold="1" page="1" pageScale="1" pageWidth="827" pageHeight="1169" math="0" shadow="0">
      <root>
        <mxCell id="0" />
        <mxCell id="1" parent="0" />
        <mxCell id="g3FacJts447bwH2BUUsu-43" value="" style="shape=process;whiteSpace=wrap;html=1;backgroundOutline=1;rounded=1;gradientColor=#E6E6E6;fillColor=#FFFFFF;strokeColor=default;" parent="1" vertex="1">
          <mxGeometry x="80" y="9" width="600" height="230" as="geometry" />
        </mxCell>
        <mxCell id="g3FacJts447bwH2BUUsu-56" value="" style="shape=process;whiteSpace=wrap;html=1;backgroundOutline=1;rounded=1;gradientColor=#CCCCCC;fillColor=#E6E6E6;strokeColor=default;" parent="1" vertex="1">
          <mxGeometry x="80" y="239" width="600" height="230" as="geometry" />
        </mxCell>
        <mxCell id="g3FacJts447bwH2BUUsu-67" value="" style="shape=process;whiteSpace=wrap;html=1;backgroundOutline=1;rounded=1;fillColor=#CCCCCC;gradientColor=#B3B3B3;strokeColor=default;" parent="1" vertex="1">
          <mxGeometry x="80" y="469" width="600" height="230" as="geometry" />
        </mxCell>
        <mxCell id="g3FacJts447bwH2BUUsu-77" value="" style="shape=process;whiteSpace=wrap;html=1;backgroundOutline=1;fillColor=#B3B3B3;strokeColor=default;rounded=1;gradientColor=#999999;" parent="1" vertex="1">
          <mxGeometry x="80" y="699" width="600" height="230" as="geometry" />
        </mxCell>
        <mxCell id="g3FacJts447bwH2BUUsu-108" value="" style="shape=process;whiteSpace=wrap;html=1;backgroundOutline=1;rounded=1;fillColor=#999999;gradientColor=#808080;strokeColor=default;" parent="1" vertex="1">
          <mxGeometry x="80" y="929" width="600" height="230" as="geometry" />
        </mxCell>
        <mxCell id="xXZptcnk_brkqJqVmBfV-121" value="&lt;font style=&quot;font-size: 20px;&quot;&gt;IMPROVED HANDS&lt;br style=&quot;font-size: 20px;&quot;&gt;&lt;/font&gt;" style="text;html=1;strokeColor=none;fillColor=none;align=center;verticalAlign=middle;whiteSpace=wrap;horizontal=0;fontStyle=1;rounded=0;fontColor=#660033;fontFamily=Gentium Book Basic;fontSource=https%3A%2F%2Ffonts.googleapis.com%2Fcss%3Ffamily%3DGentium%2BBook%2BBasic;fontSize=20;" parent="1" vertex="1">
          <mxGeometry x="80" y="700" width="60" height="230" as="geometry" />
        </mxCell>
        <mxCell id="xXZptcnk_brkqJqVmBfV-132" value="&lt;font style=&quot;font-size: 22px;&quot;&gt;I&lt;/font&gt;" style="whiteSpace=wrap;html=1;aspect=fixed;labelBackgroundColor=none;labelBorderColor=none;fontSize=22;fontColor=#000000;fillColor=#FFFFFF;gradientColor=none;verticalAlign=middle;horizontal=0;fontFamily=Luxurious Roman;fontSource=https%3A%2F%2Ffonts.googleapis.com%2Fcss%3Ffamily%3DLuxurious%2BRoman;fontStyle=0" parent="1" vertex="1">
          <mxGeometry x="620" y="9" width="60" height="60" as="geometry" />
        </mxCell>
        <mxCell id="R0jju0OTF_589DZmGp97-9" value="&lt;font style=&quot;font-size: 20px&quot;&gt;IMPROVED MONSTERS&lt;br style=&quot;font-size: 20px&quot;&gt;&lt;/font&gt;" style="text;html=1;strokeColor=none;fillColor=none;align=center;verticalAlign=middle;whiteSpace=wrap;horizontal=0;fontStyle=1;rounded=0;fontColor=#660033;fontFamily=Gentium Book Basic;fontSource=https%3A%2F%2Ffonts.googleapis.com%2Fcss%3Ffamily%3DGentium%2BBook%2BBasic;fontSize=20;" parent="1" vertex="1">
          <mxGeometry x="80" y="240" width="60" height="230" as="geometry" />
        </mxCell>
        <mxCell id="ZHAniX2luiYQjnmn3kyG-10" value="&lt;font style=&quot;font-size: 15px&quot;&gt;+&lt;font face=&quot;Luxurious Roman&quot; data-font-src=&quot;https://fonts.googleapis.com/css?family=Luxurious+Roman&quot;&gt;1&lt;/font&gt;&amp;nbsp; (3 Â» 4)&lt;/font&gt;" style="text;html=1;strokeColor=none;fillColor=none;align=center;verticalAlign=middle;whiteSpace=wrap;rounded=0;fontSize=15;spacingLeft=6;spacingRight=6;fontFamily=Gentium Book Basic;fontSource=https%3A%2F%2Ffonts.googleapis.com%2Fcss%3Ffamily%3DGentium%2BBook%2BBasic;fontStyle=1;fontColor=#000000;" parent="1" vertex="1">
          <mxGeometry x="275" y="854" width="90" height="20" as="geometry" />
        </mxCell>
        <mxCell id="ZHAniX2luiYQjnmn3kyG-14" value="&lt;font color=&quot;#660033&quot; style=&quot;font-size: 15px;&quot;&gt;When a Pawn is here, monsters of its type may be&amp;nbsp;changed&lt;br&gt;to any value in the matching zone during Summoning.&lt;/font&gt;" style="text;html=1;strokeColor=none;fillColor=none;align=center;verticalAlign=middle;whiteSpace=wrap;rounded=0;fontSize=15;spacingLeft=3;spacingRight=3;fontFamily=Georgia;fontStyle=2;" parent="1" vertex="1">
          <mxGeometry x="140" y="430" width="480" height="30" as="geometry" />
        </mxCell>
        <mxCell id="ZHAniX2luiYQjnmn3kyG-29" value="&lt;font color=&quot;#660033&quot;&gt;While a Pawn is here, you gain the indicated benefit.&lt;/font&gt;" style="text;html=1;strokeColor=none;fillColor=none;align=center;verticalAlign=middle;whiteSpace=wrap;rounded=0;fontSize=15;spacingLeft=3;spacingRight=3;fontFamily=Georgia;fontStyle=2" parent="1" vertex="1">
          <mxGeometry x="140" y="890" width="480" height="30" as="geometry" />
        </mxCell>
        <mxCell id="oXEXAH-3kzme5YINiiaa-7" value="&lt;font style=&quot;font-size: 20px;&quot;&gt;IMPROVED SPELLS&lt;br style=&quot;font-size: 20px;&quot;&gt;&lt;/font&gt;" style="text;html=1;strokeColor=none;fillColor=none;align=center;verticalAlign=middle;whiteSpace=wrap;horizontal=0;fontStyle=1;rounded=0;fontColor=#660033;fontFamily=Gentium Book Basic;fontSource=https%3A%2F%2Ffonts.googleapis.com%2Fcss%3Ffamily%3DGentium%2BBook%2BBasic;fontSize=20;" parent="1" vertex="1">
          <mxGeometry x="80" y="470" width="60" height="230" as="geometry" />
        </mxCell>
        <mxCell id="oXEXAH-3kzme5YINiiaa-9" value="&lt;span&gt;&lt;font style=&quot;font-size: 36px&quot; face=&quot;Luxurious Roman&quot; data-font-src=&quot;https://fonts.googleapis.com/css?family=Luxurious+Roman&quot;&gt;&lt;b&gt;3&lt;/b&gt;&lt;/font&gt;&lt;br&gt;&lt;i&gt;points&lt;br&gt;per&lt;br&gt;Pawn&lt;/i&gt;&lt;br&gt;&lt;/span&gt;" style="text;html=1;strokeColor=none;fillColor=none;align=center;verticalAlign=middle;whiteSpace=wrap;rounded=0;fontSize=12;fontColor=#660033;labelBackgroundColor=none;fontFamily=Georgia;" parent="1" vertex="1">
          <mxGeometry x="620" y="469" width="60" height="230" as="geometry" />
        </mxCell>
        <mxCell id="oXEXAH-3kzme5YINiiaa-10" value="&lt;span&gt;&lt;font style=&quot;font-size: 36px&quot; face=&quot;Luxurious Roman&quot; data-font-src=&quot;https://fonts.googleapis.com/css?family=Luxurious+Roman&quot;&gt;&lt;b&gt;2&lt;/b&gt;&lt;/font&gt;&lt;br&gt;&lt;i&gt;points&lt;br&gt;per&lt;br&gt;Pawn&lt;/i&gt;&lt;br&gt;&lt;/span&gt;" style="text;html=1;strokeColor=none;fillColor=none;align=center;verticalAlign=middle;whiteSpace=wrap;rounded=0;fontSize=12;fontColor=#660033;labelBackgroundColor=none;fontFamily=Georgia;" parent="1" vertex="1">
          <mxGeometry x="620" y="239" width="60" height="230" as="geometry" />
        </mxCell>
        <mxCell id="oXEXAH-3kzme5YINiiaa-11" value="&lt;span&gt;&lt;span style=&quot;font-size: 36px&quot;&gt;&lt;b&gt;&lt;font face=&quot;Luxurious Roman&quot; data-font-src=&quot;https://fonts.googleapis.com/css?family=Luxurious+Roman&quot;&gt;4&lt;/font&gt;&lt;/b&gt;&lt;/span&gt;&lt;br&gt;&lt;i&gt;points&lt;br&gt;per&lt;br&gt;Pawn&lt;/i&gt;&lt;br&gt;&lt;/span&gt;" style="text;html=1;strokeColor=none;fillColor=none;align=center;verticalAlign=middle;whiteSpace=wrap;rounded=0;fontSize=12;fontColor=#660033;labelBackgroundColor=none;fontFamily=Georgia;" parent="1" vertex="1">
          <mxGeometry x="620" y="699" width="60" height="230" as="geometry" />
        </mxCell>
        <mxCell id="8KatNTizSnMYKGegr9bk-1" value="V" style="whiteSpace=wrap;html=1;aspect=fixed;labelBackgroundColor=none;labelBorderColor=none;fontSize=22;fontColor=#000000;fillColor=#999999;gradientColor=none;verticalAlign=middle;horizontal=0;fontFamily=Luxurious Roman;fontSource=https%3A%2F%2Ffonts.googleapis.com%2Fcss%3Ffamily%3DLuxurious%2BRoman;fontStyle=0" parent="1" vertex="1">
          <mxGeometry x="620" y="929" width="60" height="60" as="geometry" />
        </mxCell>
        <mxCell id="8KatNTizSnMYKGegr9bk-2" value="&lt;font style=&quot;font-size: 22px;&quot;&gt;II&lt;br style=&quot;font-size: 22px;&quot;&gt;&lt;/font&gt;" style="whiteSpace=wrap;html=1;aspect=fixed;labelBackgroundColor=none;labelBorderColor=none;fontSize=22;fontColor=#000000;fillColor=#E6E6E6;gradientColor=none;verticalAlign=middle;horizontal=0;fontFamily=Luxurious Roman;fontSource=https%3A%2F%2Ffonts.googleapis.com%2Fcss%3Ffamily%3DLuxurious%2BRoman;fontStyle=0" parent="1" vertex="1">
          <mxGeometry x="620" y="239" width="60" height="60" as="geometry" />
        </mxCell>
        <mxCell id="8KatNTizSnMYKGegr9bk-3" value="&lt;font style=&quot;font-size: 22px&quot;&gt;III&lt;br style=&quot;font-size: 22px&quot;&gt;&lt;/font&gt;" style="whiteSpace=wrap;html=1;aspect=fixed;labelBackgroundColor=none;labelBorderColor=none;fontSize=22;fontColor=#000000;fillColor=#CCCCCC;gradientColor=none;verticalAlign=middle;horizontal=0;fontFamily=Luxurious Roman;fontSource=https%3A%2F%2Ffonts.googleapis.com%2Fcss%3Ffamily%3DLuxurious%2BRoman;fontStyle=0" parent="1" vertex="1">
          <mxGeometry x="620" y="469" width="60" height="60" as="geometry" />
        </mxCell>
        <mxCell id="8KatNTizSnMYKGegr9bk-4" value="&lt;font style=&quot;font-size: 22px;&quot;&gt;&lt;font style=&quot;font-size: 22px;&quot;&gt;IV&lt;/font&gt;&lt;br style=&quot;font-size: 22px;&quot;&gt;&lt;/font&gt;" style="whiteSpace=wrap;html=1;aspect=fixed;labelBackgroundColor=none;labelBorderColor=none;fontSize=22;fontColor=#000000;fillColor=#B3B3B3;gradientColor=none;verticalAlign=middle;horizontal=0;fontFamily=Luxurious Roman;fontSource=https%3A%2F%2Ffonts.googleapis.com%2Fcss%3Ffamily%3DLuxurious%2BRoman;fontStyle=0" parent="1" vertex="1">
          <mxGeometry x="620" y="699" width="60" height="60" as="geometry" />
        </mxCell>
        <mxCell id="_O27XECYRmZ1K9vp6goM-3" value="&lt;span&gt;&lt;span style=&quot;font-size: 36px&quot;&gt;&lt;b&gt;&lt;font face=&quot;Luxurious Roman&quot; data-font-src=&quot;https://fonts.googleapis.com/css?family=Luxurious+Roman&quot;&gt;1&lt;/font&gt;&lt;/b&gt;&lt;/span&gt;&lt;br&gt;&lt;i&gt;point&lt;br&gt;per&lt;br&gt;Pawn&lt;/i&gt;&lt;br&gt;&lt;/span&gt;" style="text;html=1;strokeColor=none;fillColor=none;align=center;verticalAlign=middle;whiteSpace=wrap;rounded=0;fontSize=12;fontColor=#660033;labelBackgroundColor=none;fontFamily=Georgia;" parent="1" vertex="1">
          <mxGeometry x="620" y="9" width="60" height="230" as="geometry" />
        </mxCell>
        <mxCell id="_O27XECYRmZ1K9vp6goM-4" value="&lt;span style=&quot;font-size: 18px&quot;&gt;PROMOTE A &lt;b&gt;MONSTER&amp;nbsp;&lt;/b&gt;OF &lt;b style=&quot;font-size: 18px&quot;&gt;ANY TYPE&amp;nbsp;&lt;/b&gt;HERE&lt;br style=&quot;font-size: 18px&quot;&gt;&lt;/span&gt;" style="text;html=1;strokeColor=none;fillColor=none;align=center;verticalAlign=middle;whiteSpace=wrap;rounded=1;fontFamily=Gentium Book Basic;fontStyle=0;fontSize=18;fontSource=https%3A%2F%2Ffonts.googleapis.com%2Fcss%3Ffamily%3DGentium%2BBook%2BBasic;" parent="1" vertex="1">
          <mxGeometry x="140" y="24" width="480" height="30" as="geometry" />
        </mxCell>
        <mxCell id="_O27XECYRmZ1K9vp6goM-7" value="&lt;span style=&quot;font-size: 18px&quot;&gt;PROMOTE A &lt;span style=&quot;font-size: 18px;&quot;&gt;&lt;b&gt;MONSTER&lt;/b&gt;&lt;/span&gt;&amp;nbsp;OF &lt;span style=&quot;font-size: 18px;&quot;&gt;&lt;b&gt;MATCHING TYPE&lt;/b&gt;&lt;/span&gt;&amp;nbsp;HERE&lt;br&gt;&lt;b&gt;2&amp;nbsp;MATCHING PAWNS&lt;/b&gt;&amp;nbsp;MUST ALREADY BE PRESENT&lt;br style=&quot;font-size: 18px&quot;&gt;&lt;/span&gt;" style="text;html=1;strokeColor=none;fillColor=none;align=center;verticalAlign=middle;whiteSpace=wrap;rounded=1;fontFamily=Gentium Book Basic;fontStyle=0;fontSize=18;fontSource=https%3A%2F%2Ffonts.googleapis.com%2Fcss%3Ffamily%3DGentium%2BBook%2BBasic;" parent="1" vertex="1">
          <mxGeometry x="140" y="944" width="480" height="30" as="geometry" />
        </mxCell>
        <mxCell id="_O27XECYRmZ1K9vp6goM-14" value="&lt;font color=&quot;#660033&quot; style=&quot;font-size: 15px;&quot;&gt;When a Pawn is here, unlock the 3rd use of Spells&lt;br&gt;available only by spending matching&amp;nbsp;Souls.&lt;/font&gt;" style="text;html=1;strokeColor=none;fillColor=none;align=center;verticalAlign=middle;whiteSpace=wrap;rounded=0;fontSize=15;spacingLeft=3;spacingRight=3;fontFamily=Georgia;fontStyle=2;" parent="1" vertex="1">
          <mxGeometry x="140" y="660" width="480" height="30" as="geometry" />
        </mxCell>
        <mxCell id="_O27XECYRmZ1K9vp6goM-15" value="&lt;span&gt;&lt;span style=&quot;font-size: 36px&quot;&gt;&lt;b&gt;&lt;font face=&quot;Luxurious Roman&quot; data-font-src=&quot;https://fonts.googleapis.com/css?family=Luxurious+Roman&quot;&gt;0&lt;/font&gt;&lt;/b&gt;&lt;/span&gt;&lt;br&gt;&lt;i&gt;point&lt;br&gt;per&lt;br&gt;Pawn&lt;/i&gt;&lt;br&gt;&lt;/span&gt;" style="text;html=1;strokeColor=none;fillColor=none;align=center;verticalAlign=middle;whiteSpace=wrap;rounded=0;fontSize=12;fontColor=#660033;labelBackgroundColor=none;fontFamily=Georgia;" parent="1" vertex="1">
          <mxGeometry x="620" y="929" width="60" height="230" as="geometry" />
        </mxCell>
        <mxCell id="_O27XECYRmZ1K9vp6goM-16" value="&lt;font color=&quot;#660033&quot;&gt;Pawns in this position are not removed between Contracts.&lt;br&gt;When all Pawns are here, the Conjuror wins.&lt;/font&gt;" style="text;html=1;strokeColor=none;fillColor=none;align=center;verticalAlign=middle;whiteSpace=wrap;rounded=0;fontSize=15;spacingLeft=3;spacingRight=3;fontFamily=Georgia;fontStyle=2" parent="1" vertex="1">
          <mxGeometry x="140" y="1120" width="480" height="30" as="geometry" />
        </mxCell>
        <mxCell id="_O27XECYRmZ1K9vp6goM-22" value="&lt;font style=&quot;font-size: 20px;&quot;&gt;CONJUROR WINS&lt;br style=&quot;font-size: 20px;&quot;&gt;&lt;/font&gt;" style="text;html=1;strokeColor=none;fillColor=none;align=center;verticalAlign=middle;whiteSpace=wrap;horizontal=0;fontStyle=1;rounded=0;fontColor=#660033;fontFamily=Gentium Book Basic;fontSource=https%3A%2F%2Ffonts.googleapis.com%2Fcss%3Ffamily%3DGentium%2BBook%2BBasic;fontSize=20;" parent="1" vertex="1">
          <mxGeometry x="80" y="930" width="60" height="230" as="geometry" />
        </mxCell>
        <mxCell id="_O27XECYRmZ1K9vp6goM-23" value="&lt;font&gt;+&lt;font style=&quot;&quot; face=&quot;Luxurious Roman&quot; data-font-src=&quot;https://fonts.googleapis.com/css?family=Luxurious+Roman&quot;&gt;1&lt;/font&gt;&amp;nbsp;(3 Â» 4)&lt;/font&gt;" style="text;html=1;strokeColor=none;fillColor=none;align=center;verticalAlign=middle;whiteSpace=wrap;rounded=0;fontSize=15;spacingLeft=6;spacingRight=6;fontFamily=Gentium Book Basic;fontSource=https%3A%2F%2Ffonts.googleapis.com%2Fcss%3Ffamily%3DGentium%2BBook%2BBasic;fontStyle=1;fontColor=#000000;" parent="1" vertex="1">
          <mxGeometry x="395" y="854" width="90" height="20" as="geometry" />
        </mxCell>
        <mxCell id="_O27XECYRmZ1K9vp6goM-24" value="&lt;font&gt;Hunt Hand&lt;/font&gt;" style="text;html=1;strokeColor=none;fillColor=none;align=center;verticalAlign=middle;whiteSpace=wrap;rounded=0;fontSize=15;spacingLeft=6;spacingRight=6;fontFamily=Gentium Book Basic;fontSource=https%3A%2F%2Ffonts.googleapis.com%2Fcss%3Ffamily%3DGentium%2BBook%2BBasic;fontStyle=1;fontColor=#000000;" parent="1" vertex="1">
          <mxGeometry x="155" y="758" width="90" height="16" as="geometry" />
        </mxCell>
        <mxCell id="_O27XECYRmZ1K9vp6goM-25" value="&lt;font&gt;&lt;font data-font-src=&quot;https://fonts.googleapis.com/css?family=Luxurious+Roman&quot;&gt;+&lt;/font&gt;&lt;font data-font-src=&quot;https://fonts.googleapis.com/css?family=Luxurious+Roman&quot; face=&quot;Luxurious Roman&quot;&gt;1/Hunt&lt;/font&gt;&lt;/font&gt;" style="text;html=1;strokeColor=none;fillColor=none;align=center;verticalAlign=middle;whiteSpace=wrap;rounded=0;fontSize=15;spacingLeft=6;spacingRight=6;fontFamily=Gentium Book Basic;fontSource=https%3A%2F%2Ffonts.googleapis.com%2Fcss%3Ffamily%3DGentium%2BBook%2BBasic;fontStyle=1;fontColor=#000000;" parent="1" vertex="1">
          <mxGeometry x="515" y="854" width="90" height="20" as="geometry" />
        </mxCell>
        <mxCell id="_O27XECYRmZ1K9vp6goM-27" value="&lt;font&gt;Spell Hand&lt;/font&gt;" style="text;html=1;strokeColor=none;fillColor=none;align=center;verticalAlign=middle;whiteSpace=wrap;rounded=0;fontSize=15;spacingLeft=6;spacingRight=6;fontFamily=Gentium Book Basic;fontSource=https%3A%2F%2Ffonts.googleapis.com%2Fcss%3Ffamily%3DGentium%2BBook%2BBasic;fontStyle=1;fontColor=#000000;" parent="1" vertex="1">
          <mxGeometry x="395" y="758" width="90" height="16" as="geometry" />
        </mxCell>
        <mxCell id="_O27XECYRmZ1K9vp6goM-28" value="&lt;font&gt;Spell Book&lt;/font&gt;" style="text;html=1;strokeColor=none;fillColor=none;align=center;verticalAlign=middle;whiteSpace=wrap;rounded=0;fontSize=15;spacingLeft=6;spacingRight=6;fontFamily=Gentium Book Basic;fontSource=https%3A%2F%2Ffonts.googleapis.com%2Fcss%3Ffamily%3DGentium%2BBook%2BBasic;fontStyle=1;fontColor=#000000;" parent="1" vertex="1">
          <mxGeometry x="275" y="758" width="90" height="16" as="geometry" />
        </mxCell>
        <mxCell id="_O27XECYRmZ1K9vp6goM-30" value="Tallies" style="text;html=1;strokeColor=none;fillColor=none;align=center;verticalAlign=middle;whiteSpace=wrap;rounded=0;fontSize=15;spacingLeft=6;spacingRight=6;fontFamily=Gentium Book Basic;fontSource=https%3A%2F%2Ffonts.googleapis.com%2Fcss%3Ffamily%3DGentium%2BBook%2BBasic;fontStyle=1;fontColor=#000000;" parent="1" vertex="1">
          <mxGeometry x="515" y="758" width="90" height="16" as="geometry" />
        </mxCell>
        <mxCell id="_O27XECYRmZ1K9vp6goM-32" value="&lt;font&gt;+1 (3 Â» 4)&lt;/font&gt;" style="text;html=1;strokeColor=none;fillColor=none;align=center;verticalAlign=middle;whiteSpace=wrap;rounded=0;fontSize=15;spacingLeft=6;spacingRight=6;fontFamily=Gentium Book Basic;fontSource=https%3A%2F%2Ffonts.googleapis.com%2Fcss%3Ffamily%3DGentium%2BBook%2BBasic;fontStyle=1;fontColor=#000000;" parent="1" vertex="1">
          <mxGeometry x="155" y="854" width="90" height="20" as="geometry" />
        </mxCell>
        <mxCell id="4puakNMa-LfbzIZQXIiP-9" value="&lt;span style=&quot;font-size: 18px&quot;&gt;PROMOTE A &lt;b&gt;MONSTER&amp;nbsp;&lt;/b&gt;OF &lt;b style=&quot;font-size: 18px&quot;&gt;ANY TYPE&amp;nbsp;&lt;/b&gt;HERE&lt;br style=&quot;font-size: 18px&quot;&gt;&lt;/span&gt;" style="text;html=1;strokeColor=none;fillColor=none;align=center;verticalAlign=middle;whiteSpace=wrap;rounded=1;fontFamily=Gentium Book Basic;fontStyle=0;fontSize=18;fontSource=https%3A%2F%2Ffonts.googleapis.com%2Fcss%3Ffamily%3DGentium%2BBook%2BBasic;" vertex="1" parent="1">
          <mxGeometry x="140" y="254" width="480" height="30" as="geometry" />
        </mxCell>
        <mxCell id="4puakNMa-LfbzIZQXIiP-10" value="&lt;span style=&quot;font-size: 18px&quot;&gt;PROMOTE A &lt;b&gt;MONSTER&amp;nbsp;&lt;/b&gt;OF &lt;b style=&quot;font-size: 18px&quot;&gt;ANY TYPE&amp;nbsp;&lt;/b&gt;HERE&lt;br style=&quot;font-size: 18px&quot;&gt;&lt;/span&gt;" style="text;html=1;strokeColor=none;fillColor=none;align=center;verticalAlign=middle;whiteSpace=wrap;rounded=1;fontFamily=Gentium Book Basic;fontStyle=0;fontSize=18;fontSource=https%3A%2F%2Ffonts.googleapis.com%2Fcss%3Ffamily%3DGentium%2BBook%2BBasic;" vertex="1" parent="1">
          <mxGeometry x="140" y="484" width="480" height="30" as="geometry" />
        </mxCell>
        <mxCell id="4puakNMa-LfbzIZQXIiP-11" value="&lt;span style=&quot;font-size: 18px&quot;&gt;PROMOTE A &lt;b&gt;MONSTER&amp;nbsp;&lt;/b&gt;OF &lt;b style=&quot;font-size: 18px&quot;&gt;ANY TYPE&amp;nbsp;&lt;/b&gt;HERE&lt;br style=&quot;font-size: 18px&quot;&gt;&lt;/span&gt;" style="text;html=1;strokeColor=none;fillColor=none;align=center;verticalAlign=middle;whiteSpace=wrap;rounded=1;fontFamily=Gentium Book Basic;fontStyle=0;fontSize=18;fontSource=https%3A%2F%2Ffonts.googleapis.com%2Fcss%3Ffamily%3DGentium%2BBook%2BBasic;" vertex="1" parent="1">
          <mxGeometry x="140" y="714" width="480" height="30" as="geometry" />
        </mxCell>
        <mxCell id="4puakNMa-LfbzIZQXIiP-18" value="" style="rounded=1;whiteSpace=wrap;html=1;aspect=fixed;fillColor=none;strokeColor=#9966ff;rounded=1;strokeWidth=2;" vertex="1" parent="1">
          <mxGeometry x="400" y="545" width="80" height="80" as="geometry" />
        </mxCell>
        <mxCell id="4puakNMa-LfbzIZQXIiP-19" value="" style="rounded=1;whiteSpace=wrap;html=1;aspect=fixed;fillColor=none;strokeColor=#797979;rounded=1;strokeWidth=2;" vertex="1" parent="1">
          <mxGeometry x="520" y="545" width="80" height="80" as="geometry" />
        </mxCell>
        <mxCell id="4puakNMa-LfbzIZQXIiP-20" value="" style="rounded=1;whiteSpace=wrap;html=1;aspect=fixed;fillColor=none;strokeColor=#ff6600;rounded=1;strokeWidth=2;" vertex="1" parent="1">
          <mxGeometry x="280" y="545" width="80" height="80" as="geometry" />
        </mxCell>
        <mxCell id="4puakNMa-LfbzIZQXIiP-21" value="" style="rounded=1;whiteSpace=wrap;html=1;aspect=fixed;fillColor=none;strokeColor=#0099cc;rounded=1;fontColor=#0E8088;fontFamily=Gentium Book Basic;fontSize=14;fontSource=https%3A%2F%2Ffonts.googleapis.com%2Fcss%3Ffamily%3DGentium%2BBook%2BBasic;fontStyle=0;verticalAlign=middle;strokeWidth=2;" vertex="1" parent="1">
          <mxGeometry x="160" y="545" width="80" height="80" as="geometry" />
        </mxCell>
        <mxCell id="4puakNMa-LfbzIZQXIiP-26" value="" style="whiteSpace=wrap;html=1;aspect=fixed;strokeColor=#C73500;fillColor=#FF6600;rounded=1;strokeWidth=2;fontColor=#000000;" vertex="1" parent="1">
          <mxGeometry x="280" y="1004" width="80" height="80" as="geometry" />
        </mxCell>
        <mxCell id="4puakNMa-LfbzIZQXIiP-27" value="" style="whiteSpace=wrap;html=1;aspect=fixed;rounded=1;strokeColor=#666666;fillColor=#797979;gradientColor=none;strokeWidth=2;" vertex="1" parent="1">
          <mxGeometry x="520" y="1004" width="80" height="80" as="geometry" />
        </mxCell>
        <mxCell id="4puakNMa-LfbzIZQXIiP-28" value="" style="whiteSpace=wrap;html=1;aspect=fixed;rounded=1;strokeColor=#56517e;fillColor=#9966FF;strokeWidth=2;" vertex="1" parent="1">
          <mxGeometry x="400" y="1004" width="80" height="80" as="geometry" />
        </mxCell>
        <mxCell id="4puakNMa-LfbzIZQXIiP-29" value="" style="whiteSpace=wrap;html=1;aspect=fixed;rounded=1;strokeColor=#10739e;fillColor=#0099CC;strokeWidth=2;" vertex="1" parent="1">
          <mxGeometry x="160" y="1004" width="80" height="80" as="geometry" />
        </mxCell>
        <mxCell id="4puakNMa-LfbzIZQXIiP-39" value="" style="rounded=1;whiteSpace=wrap;html=1;aspect=fixed;fillColor=none;strokeColor=#9966ff;rounded=1;strokeWidth=2;" vertex="1" parent="1">
          <mxGeometry x="400" y="774" width="80" height="80" as="geometry" />
        </mxCell>
        <mxCell id="4puakNMa-LfbzIZQXIiP-40" value="" style="rounded=1;whiteSpace=wrap;html=1;aspect=fixed;fillColor=none;strokeColor=#797979;rounded=1;strokeWidth=2;" vertex="1" parent="1">
          <mxGeometry x="520" y="774" width="80" height="80" as="geometry" />
        </mxCell>
        <mxCell id="4puakNMa-LfbzIZQXIiP-41" value="" style="rounded=1;whiteSpace=wrap;html=1;aspect=fixed;fillColor=none;strokeColor=#ff6600;rounded=1;strokeWidth=2;" vertex="1" parent="1">
          <mxGeometry x="280" y="774" width="80" height="80" as="geometry" />
        </mxCell>
        <mxCell id="4puakNMa-LfbzIZQXIiP-42" value="" style="rounded=1;whiteSpace=wrap;html=1;aspect=fixed;fillColor=none;strokeColor=#0099cc;rounded=1;fontColor=#0E8088;fontFamily=Gentium Book Basic;fontSize=14;fontSource=https%3A%2F%2Ffonts.googleapis.com%2Fcss%3Ffamily%3DGentium%2BBook%2BBasic;fontStyle=0;verticalAlign=middle;strokeWidth=2;" vertex="1" parent="1">
          <mxGeometry x="160" y="774" width="80" height="80" as="geometry" />
        </mxCell>
        <mxCell id="4puakNMa-LfbzIZQXIiP-45" value="" style="rounded=1;whiteSpace=wrap;html=1;aspect=fixed;fillColor=none;strokeColor=#9966ff;rounded=1;strokeWidth=2;" vertex="1" parent="1">
          <mxGeometry x="400" y="314" width="80" height="80" as="geometry" />
        </mxCell>
        <mxCell id="4puakNMa-LfbzIZQXIiP-46" value="" style="rounded=1;whiteSpace=wrap;html=1;aspect=fixed;fillColor=none;strokeColor=#797979;rounded=1;strokeWidth=2;" vertex="1" parent="1">
          <mxGeometry x="520" y="314" width="80" height="80" as="geometry" />
        </mxCell>
        <mxCell id="4puakNMa-LfbzIZQXIiP-47" value="" style="rounded=1;whiteSpace=wrap;html=1;aspect=fixed;fillColor=none;strokeColor=#ff6600;rounded=1;strokeWidth=2;" vertex="1" parent="1">
          <mxGeometry x="280" y="314" width="80" height="80" as="geometry" />
        </mxCell>
        <mxCell id="4puakNMa-LfbzIZQXIiP-48" value="" style="rounded=1;whiteSpace=wrap;html=1;aspect=fixed;fillColor=none;strokeColor=#0099cc;rounded=1;fontColor=#0E8088;fontFamily=Gentium Book Basic;fontSize=14;fontSource=https%3A%2F%2Ffonts.googleapis.com%2Fcss%3Ffamily%3DGentium%2BBook%2BBasic;fontStyle=0;verticalAlign=middle;strokeWidth=2;" vertex="1" parent="1">
          <mxGeometry x="160" y="314" width="80" height="80" as="geometry" />
        </mxCell>
        <mxCell id="4puakNMa-LfbzIZQXIiP-49" value="" style="rounded=1;whiteSpace=wrap;html=1;aspect=fixed;fillColor=none;strokeColor=#9966ff;rounded=1;strokeWidth=2;" vertex="1" parent="1">
          <mxGeometry x="400" y="84" width="80" height="80" as="geometry" />
        </mxCell>
        <mxCell id="4puakNMa-LfbzIZQXIiP-50" value="" style="rounded=1;whiteSpace=wrap;html=1;aspect=fixed;fillColor=none;strokeColor=#797979;rounded=1;strokeWidth=2;" vertex="1" parent="1">
          <mxGeometry x="520" y="84" width="80" height="80" as="geometry" />
        </mxCell>
        <mxCell id="4puakNMa-LfbzIZQXIiP-51" value="" style="rounded=1;whiteSpace=wrap;html=1;aspect=fixed;fillColor=none;strokeColor=#ff6600;rounded=1;strokeWidth=2;" vertex="1" parent="1">
          <mxGeometry x="280" y="84" width="80" height="80" as="geometry" />
        </mxCell>
        <mxCell id="4puakNMa-LfbzIZQXIiP-52" value="" style="rounded=1;whiteSpace=wrap;html=1;aspect=fixed;fillColor=none;strokeColor=#0099cc;rounded=1;fontColor=#0E8088;fontFamily=Gentium Book Basic;fontSize=14;fontSource=https%3A%2F%2Ffonts.googleapis.com%2Fcss%3Ffamily%3DGentium%2BBook%2BBasic;fontStyle=0;verticalAlign=middle;strokeWidth=2;" vertex="1" parent="1">
          <mxGeometry x="160" y="84" width="80" height="80" as="geometry" />
        </mxCell>
      </root>
    </mxGraphModel>
  </diagram>
</mxfile>
